<svg width="74" height="74" viewBox="0 0 74 74" fill="none" xmlns="http://www.w3.org/2000/svg">
<path d="M74 37C74 16.5655 57.4345 0 37 0C16.5655 0 0 16.5655 0 37C0 57.4345 16.5655 74 37 74C57.4345 74 74 57.4345 74 37Z" fill="url(#paint0_linear_6917_52)"/>
<g clip-path="url(#clip0_6917_52)">
<mask id="mask0_6917_52" style="mask-type:luminance" maskUnits="userSpaceOnUse" x="18" y="18" width="38" height="38">
<path d="M56 18H18V56H56V18Z" fill="white"/>
</mask>
<g mask="url(#mask0_6917_52)">
<path d="M21.0645 51.6967H37V50.4706H21.0645C20.049 50.4706 19.2257 49.6474 19.2257 48.6319V21.6642C19.2257 20.6484 20.049 19.8255 21.0645 19.8255H48.0322C49.0481 19.8255 49.8709 20.6484 49.8709 21.6642V35.7609H51.097V21.6642C51.095 19.9725 49.7241 18.6017 48.0322 18.5997H21.0645C19.3731 18.6017 18.0022 19.9725 18 21.6642V48.6319C18.0022 50.3236 19.3731 51.6944 21.0645 51.6967Z" fill="white"/>
<path d="M20.4517 21.0515H21.6773V22.2771H20.4517V21.0515Z" fill="white"/>
<path d="M22.9032 21.0515H24.1293V22.2771H22.9032V21.0515Z" fill="white"/>
<path d="M25.3548 21.0515H26.5807V22.2771H25.3548V21.0515Z" fill="white"/>
<path d="M20.4517 23.5029H48.6451V24.729H20.4517V23.5029Z" fill="white"/>
<path d="M26.7602 26.1342L25.2034 27.691C23.8875 26.8198 22.1253 27.0871 21.1266 28.3093C20.128 29.5314 20.2176 31.3115 21.3335 32.4273C22.4493 33.5435 24.2296 33.6331 25.4518 32.6344C26.6739 31.6358 26.9413 29.8733 26.07 28.5577L27.6266 27.0009L26.7602 26.1342ZM23.5159 32.0835C22.5006 32.0835 21.6773 31.2604 21.6773 30.2449C21.6773 29.2293 22.5006 28.4064 23.5159 28.4064C23.7893 28.4073 24.0583 28.47 24.3036 28.59L23.0828 29.8109L23.9492 30.6777L25.171 29.4575C25.291 29.7026 25.3538 29.9716 25.3547 30.2449C25.3547 31.2604 24.5318 32.0835 23.5159 32.0835Z" fill="white"/>
<path d="M28.4193 28.4064H38.8384V29.632H28.4193V28.4064Z" fill="white"/>
<path d="M28.4193 30.8579H32.7095V32.0835H28.4193V30.8579Z" fill="white"/>
<path d="M33.9356 30.8579H42.516V32.0835H33.9356V30.8579Z" fill="white"/>
<path d="M40.0645 28.4064H46.1935V29.632H40.0645V28.4064Z" fill="white"/>
<path d="M26.7602 33.4889L25.2034 35.0457C23.8875 34.1745 22.1253 34.4418 21.1266 35.664C20.128 36.8862 20.2176 38.6663 21.3335 39.7823C22.4493 40.8982 24.2296 40.9878 25.4518 39.9891C26.6739 38.9904 26.9413 37.2285 26.07 35.9124L27.6266 34.3556L26.7602 33.4889ZM23.5159 39.4384C22.5006 39.4384 21.6773 38.6151 21.6773 37.5997C21.6773 36.5841 22.5006 35.7608 23.5159 35.7608C23.7893 35.7619 24.0583 35.8247 24.3036 35.9447L23.0828 37.166L23.9492 38.0324L25.171 36.812C25.291 37.0574 25.3538 37.3264 25.3547 37.5997C25.3547 38.6151 24.5318 39.4384 23.5159 39.4384Z" fill="white"/>
<path d="M28.4193 35.7609H38.8384V36.9868H28.4193V35.7609Z" fill="white"/>
<path d="M28.4193 38.2126H32.7095V39.4384H28.4193V38.2126Z" fill="white"/>
<path d="M33.9356 38.2126H38.8386V39.4384H33.9356V38.2126Z" fill="white"/>
<path d="M40.0645 35.7609H42.516V36.9868H40.0645V35.7609Z" fill="white"/>
<path d="M26.7602 40.8438L25.2034 42.4006C23.8875 41.5294 22.1253 41.7967 21.1266 43.0189C20.128 44.2411 20.2176 46.021 21.3335 47.1371C22.4493 48.2532 24.2296 48.3425 25.4518 47.344C26.6739 46.3453 26.9413 44.5831 26.07 43.267L27.6266 41.7105L26.7602 40.8438ZM23.5159 46.7931C22.5006 46.7931 21.6773 45.97 21.6773 44.9545C21.6773 43.9389 22.5006 43.1158 23.5159 43.1158C23.7893 43.1167 24.0583 43.1794 24.3036 43.2996L23.0828 44.5209L23.9492 45.3873L25.171 44.1669C25.291 44.4122 25.3538 44.6814 25.3547 44.9545C25.3547 45.97 24.5318 46.7931 23.5159 46.7931Z" fill="white"/>
<path d="M28.4193 43.1158H36.3869V44.3419H28.4193V43.1158Z" fill="white"/>
<path d="M28.4193 45.5675H32.7095V46.7933H28.4193V45.5675Z" fill="white"/>
<path d="M33.9356 45.5675H36.3871V46.7933H33.9356V45.5675Z" fill="white"/>
<path d="M46.8065 55.3741C51.8842 55.3741 55.9999 51.2577 55.9999 46.1805C55.9999 41.1028 51.8842 36.9868 46.8065 36.9868C41.7289 36.9868 37.6129 41.1028 37.6129 46.1805C37.6188 51.2554 41.7313 55.368 46.8065 55.3741ZM46.8065 38.2127C51.2067 38.2127 54.7743 41.78 54.7743 46.1805C54.7743 50.581 51.2067 54.1481 46.8065 54.1481C42.4059 54.1481 38.8385 50.581 38.8385 46.1805C38.8437 41.7821 42.4079 38.2176 46.8065 38.2127Z" fill="white"/>
<path d="M43.0679 46.5191L41.9708 47.0669L43.1967 49.5186C43.2845 49.695 43.4523 49.8183 43.6469 49.8498C43.6786 49.8547 43.7102 49.8573 43.742 49.8578C43.9044 49.8578 44.0603 49.7931 44.1756 49.6782L51.5301 42.3234L50.6636 41.4567L43.9098 48.2102L43.0679 46.5191Z" fill="white"/>
</g>
</g>
<defs>
<linearGradient id="paint0_linear_6917_52" x1="37" y1="0" x2="37" y2="74" gradientUnits="userSpaceOnUse">
<stop stop-color="#8A7FD9"/>
<stop offset="1" stop-color="#402F8F"/>
</linearGradient>
<clipPath id="clip0_6917_52">
<rect width="38" height="38" fill="white" transform="translate(18 18)"/>
</clipPath>
</defs>
</svg>
