<svg width="74" height="74" viewBox="0 0 74 74" fill="none" xmlns="http://www.w3.org/2000/svg">
<path d="M74 37C74 16.5655 57.4345 0 37 0C16.5655 0 0 16.5655 0 37C0 57.4345 16.5655 74 37 74C57.4345 74 74 57.4345 74 37Z" fill="url(#paint0_linear_6917_23)"/>
<mask id="mask0_6917_23" style="mask-type:luminance" maskUnits="userSpaceOnUse" x="18" y="21" width="38" height="37">
<path d="M55.1578 21.2632H18.842V57.579H55.1578V21.2632Z" fill="white"/>
</mask>
<g mask="url(#mask0_6917_23)">
<path d="M41.6858 51.7216C42.6546 51.7216 43.443 50.9332 43.443 49.9644C43.443 48.9956 42.6546 48.2072 41.6858 48.2072C40.9232 48.2072 40.2789 48.6986 40.0364 49.3786H37.5856V45.8642H40.0364C40.2789 46.5443 40.9232 47.0357 41.6858 47.0357C42.6546 47.0357 43.443 46.2473 43.443 45.2785C43.443 44.3097 42.6546 43.5213 41.6858 43.5213C40.9232 43.5213 40.2789 44.0127 40.0364 44.6927H37.5856V41.1783H40.0364C40.2789 41.8583 40.9232 42.3498 41.6858 42.3498C42.6546 42.3498 43.443 41.5614 43.443 40.5926C43.443 39.6238 42.6546 38.8354 41.6858 38.8354C40.9232 38.8354 40.2789 39.3268 40.0364 40.0068H37.5856V38.8354H36.4142V36.3846C37.0942 36.1421 37.5856 35.4978 37.5856 34.7352C37.5856 33.7664 36.7972 32.978 35.8284 32.978C34.8596 32.978 34.0712 33.7664 34.0712 34.7352C34.0712 35.4978 34.5626 36.1421 35.2427 36.3846V38.8354H31.7282V36.3846C32.4083 36.1421 32.8997 35.4978 32.8997 34.7352C32.8997 33.7664 32.1113 32.978 31.1425 32.978C30.1737 32.978 29.3853 33.7664 29.3853 34.7352C29.3853 35.4978 29.8767 36.1421 30.5568 36.3846V38.8354H27.0423V36.3846C27.7224 36.1421 28.2138 35.4978 28.2138 34.7352C28.2138 33.7664 27.4254 32.978 26.4566 32.978C25.4878 32.978 24.6994 33.7664 24.6994 34.7352C24.6994 35.4978 25.1908 36.1421 25.8709 36.3846V38.8354H24.6994V40.0068H22.2487C22.0062 39.3268 21.3619 38.8354 20.5993 38.8354C19.6305 38.8354 18.842 39.6238 18.842 40.5926C18.842 41.5614 19.6305 42.3498 20.5993 42.3498C21.3619 42.3498 22.0062 41.8583 22.2487 41.1783H24.6994V44.6927H22.2487C22.0062 44.0127 21.3619 43.5213 20.5993 43.5213C19.6305 43.5213 18.842 44.3097 18.842 45.2785C18.842 46.2473 19.6305 47.0357 20.5993 47.0357C21.3619 47.0357 22.0062 46.5443 22.2487 45.8642H24.6994V49.3786H22.2487C22.0062 48.6986 21.3619 48.2072 20.5993 48.2072C19.6305 48.2072 18.842 48.9956 18.842 49.9644C18.842 50.9332 19.6305 51.7216 20.5993 51.7216C21.3619 51.7216 22.0062 51.2302 22.2487 50.5501H24.6994V51.7216H25.8709V54.1723C25.1908 54.4148 24.6994 55.0591 24.6994 55.8218C24.6994 56.7906 25.4878 57.579 26.4566 57.579C27.4254 57.579 28.2138 56.7906 28.2138 55.8218C28.2138 55.0591 27.7224 54.4148 27.0423 54.1723V51.7216H30.5568V54.1723C29.8767 54.4148 29.3853 55.0591 29.3853 55.8218C29.3853 56.7906 30.1737 57.579 31.1425 57.579C32.1113 57.579 32.8997 56.7906 32.8997 55.8218C32.8997 55.0591 32.4083 54.4148 31.7282 54.1723V51.7216H35.2427V54.1723C34.5626 54.4148 34.0712 55.0591 34.0712 55.8218C34.0712 56.7906 34.8596 57.579 35.8284 57.579C36.7972 57.579 37.5856 56.7906 37.5856 55.8218C37.5856 55.0591 37.0942 54.4148 36.4142 54.1723V51.7216H37.5856V50.5501H40.0364C40.2789 51.2302 40.9232 51.7216 41.6858 51.7216ZM41.6858 49.3786C42.0091 49.3786 42.2715 49.6411 42.2715 49.9644C42.2715 50.2877 42.0091 50.5501 41.6858 50.5501C41.3625 50.5501 41.1001 50.2877 41.1001 49.9644C41.1001 49.6411 41.3625 49.3786 41.6858 49.3786ZM41.6858 44.6927C42.0091 44.6927 42.2715 44.9551 42.2715 45.2785C42.2715 45.6018 42.0091 45.8642 41.6858 45.8642C41.3625 45.8642 41.1001 45.6018 41.1001 45.2785C41.1001 44.9551 41.3625 44.6927 41.6858 44.6927ZM41.6858 40.0068C42.0091 40.0068 42.2715 40.2692 42.2715 40.5926C42.2715 40.9159 42.0091 41.1783 41.6858 41.1783C41.3625 41.1783 41.1001 40.9159 41.1001 40.5926C41.1001 40.2692 41.3625 40.0068 41.6858 40.0068ZM20.5993 41.1783C20.2759 41.1783 20.0135 40.9159 20.0135 40.5926C20.0135 40.2692 20.2759 40.0068 20.5993 40.0068C20.9226 40.0068 21.185 40.2692 21.185 40.5926C21.185 40.9159 20.9226 41.1783 20.5993 41.1783ZM20.5993 45.8642C20.2759 45.8642 20.0135 45.6018 20.0135 45.2785C20.0135 44.9551 20.2759 44.6927 20.5993 44.6927C20.9226 44.6927 21.185 44.9551 21.185 45.2785C21.185 45.6018 20.9226 45.8642 20.5993 45.8642ZM20.5993 50.5501C20.2759 50.5501 20.0135 50.2877 20.0135 49.9644C20.0135 49.6411 20.2759 49.3786 20.5993 49.3786C20.9226 49.3786 21.185 49.6411 21.185 49.9644C21.185 50.2877 20.9226 50.5501 20.5993 50.5501ZM35.8284 34.1494C36.1517 34.1494 36.4142 34.4124 36.4142 34.7352C36.4142 35.0579 36.1517 35.3209 35.8284 35.3209C35.5051 35.3209 35.2427 35.0579 35.2427 34.7352C35.2427 34.4124 35.5051 34.1494 35.8284 34.1494ZM31.1425 34.1494C31.4658 34.1494 31.7282 34.4124 31.7282 34.7352C31.7282 35.0579 31.4658 35.3209 31.1425 35.3209C30.8192 35.3209 30.5568 35.0579 30.5568 34.7352C30.5568 34.4124 30.8192 34.1494 31.1425 34.1494ZM26.4566 34.1494C26.7799 34.1494 27.0423 34.4124 27.0423 34.7352C27.0423 35.0579 26.7799 35.3209 26.4566 35.3209C26.1333 35.3209 25.8709 35.0579 25.8709 34.7352C25.8709 34.4124 26.1333 34.1494 26.4566 34.1494ZM26.4566 56.4075C26.1333 56.4075 25.8709 56.1451 25.8709 55.8218C25.8709 55.4984 26.1333 55.236 26.4566 55.236C26.7799 55.236 27.0423 55.4984 27.0423 55.8218C27.0423 56.1451 26.7799 56.4075 26.4566 56.4075ZM31.1425 56.4075C30.8192 56.4075 30.5568 56.1451 30.5568 55.8218C30.5568 55.4984 30.8192 55.236 31.1425 55.236C31.4658 55.236 31.7282 55.4984 31.7282 55.8218C31.7282 56.1451 31.4658 56.4075 31.1425 56.4075ZM35.8284 56.4075C35.5051 56.4075 35.2427 56.1451 35.2427 55.8218C35.2427 55.4984 35.5051 55.236 35.8284 55.236C36.1517 55.236 36.4142 55.4984 36.4142 55.8218C36.4142 56.1451 36.1517 56.4075 35.8284 56.4075ZM36.4142 50.5501H25.8709V40.0068H36.4142V50.5501Z" fill="white"/>
<path d="M52.519 30.6344C52.3005 29.7874 51.9643 28.9785 51.5151 28.2194L53.383 26.3509L50.0695 23.038L48.201 24.9065C47.4418 24.4566 46.6329 24.1204 45.7859 23.9019V21.2632H41.1V23.9019C40.2531 24.1204 39.4442 24.4566 38.685 24.9059L36.8165 23.0374L33.503 26.3503L35.3709 28.2188C34.9217 28.9779 34.5855 29.7874 34.367 30.6344H32.314V31.8059H35.3118L35.4072 31.3367C35.6152 30.3111 36.0176 29.3429 36.6033 28.4578L36.8675 28.0589L35.1589 26.3503L36.816 24.6939L38.5246 26.4025L38.9234 26.1383C39.8079 25.5525 40.7761 25.1501 41.8023 24.9422L42.2715 24.8473V22.4347H44.6145V24.8473L45.0837 24.9428C46.1099 25.1507 47.0781 25.5531 47.9626 26.1389L48.3614 26.403L50.07 24.6944L51.7271 26.3509L50.0185 28.0595L50.2827 28.4584C50.8684 29.3434 51.2708 30.3117 51.4787 31.3373L51.5742 31.8065H53.9863V34.1494H51.5742L51.4787 34.6186C51.2708 35.6442 50.8684 36.6125 50.2827 37.4969L50.0185 37.8964L51.7271 39.605L50.07 41.2621L48.3614 39.5535L47.9626 39.8176C47.0775 40.4034 46.1093 40.8064 45.0837 41.0137L44.6145 41.1092V44.107H45.7859V42.054C46.6323 41.8361 47.4418 41.4999 48.201 41.05L50.0695 42.9179L53.383 39.6044L51.5151 37.7359C51.9643 36.9768 52.3005 36.1673 52.519 35.3203H55.1578V30.6344H52.519Z" fill="white"/>
<path d="M43.4431 37.6639V38.8354C46.6728 38.8354 49.3005 36.2078 49.3005 32.978C49.3005 29.7483 46.6728 27.1206 43.4431 27.1206C40.2133 27.1206 37.5857 29.7483 37.5857 32.978H38.7572C38.7572 30.3943 40.8594 28.2921 43.4431 28.2921C46.0268 28.2921 48.129 30.3943 48.129 32.978C48.129 35.5617 46.0268 37.6639 43.4431 37.6639Z" fill="white"/>
<path d="M35.2429 41.1782H27.0425V42.3497H35.2429V41.1782Z" fill="white"/>
<path d="M35.2428 48.2073H34.0713V49.3787H35.2428V48.2073Z" fill="white"/>
<path d="M32.8999 48.2073H27.0425V49.3787H32.8999V48.2073Z" fill="white"/>
<path d="M40.3976 56.0667L40.6308 57.2154C47.7826 55.7633 53.3419 50.2041 54.7939 43.0522L53.6453 42.8191C52.2881 49.5094 47.0879 54.7096 40.3976 56.0667Z" fill="white"/>
<path d="M33.6019 22.775L33.3688 21.627C26.2169 23.079 20.6577 28.6383 19.2057 35.7902L20.3543 36.0227C21.7115 29.3336 26.9116 24.1328 33.6019 22.775Z" fill="white"/>
</g>
<defs>
<linearGradient id="paint0_linear_6917_23" x1="37" y1="0" x2="37" y2="74" gradientUnits="userSpaceOnUse">
<stop stop-color="#92EFC3"/>
<stop offset="1" stop-color="#2F8F5B"/>
</linearGradient>
</defs>
</svg>
